<?xml version="1.0" encoding="UTF-8" standalone="no"?>
<!-- Created with Inkscape (http://www.inkscape.org/) -->

<svg
   width="6.6813588mm"
   height="6.8019428mm"
   viewBox="0 0 6.6813588 6.8019428"
   version="1.1"
   id="svg1"
   sodipodi:docname="drpd-logo-dark.svg"
   inkscape:version="1.3.2 (091e20e, 2023-11-25)"
   xmlns:inkscape="http://www.inkscape.org/namespaces/inkscape"
   xmlns:sodipodi="http://sodipodi.sourceforge.net/DTD/sodipodi-0.dtd"
   xmlns="http://www.w3.org/2000/svg"
   xmlns:svg="http://www.w3.org/2000/svg">
  <sodipodi:namedview
     id="namedview1"
     pagecolor="#ffffff"
     bordercolor="#000000"
     borderopacity="0.25"
     inkscape:showpageshadow="2"
     inkscape:pageopacity="0.0"
     inkscape:pagecheckerboard="0"
     inkscape:deskcolor="#d1d1d1"
     inkscape:document-units="mm"
     inkscape:zoom="33.825921"
     inkscape:cx="15.284137"
     inkscape:cy="13.879888"
     inkscape:window-width="1392"
     inkscape:window-height="1212"
     inkscape:window-x="0"
     inkscape:window-y="30"
     inkscape:window-maximized="0"
     inkscape:current-layer="g29" />
  <defs
     id="defs1" />
  <g
     id="layer1"
     transform="translate(-101.6,-144.99166)">
    <g
       id="g29"
       transform="matrix(0.02437045,0,0,0.02437045,116.25709,140.29936)">
      <path
         transform="matrix(-0.352734,0,0,0.352734,-314.10821,178.65843)"
         style="fill:none;stroke:#000000;stroke-width:49.2978;stroke-dasharray:none;stroke-opacity:1;fill-opacity:1"
         d="m 172.5,804.49194 c -12.10191,-1.66265 -14.52219,-2.21093 -25,-5.66339 C 112.61272,787.33319 85.76255,761.97424 70.918243,726.5 c -1.977676,-4.72614 -4.71447,-14.51208 -5.872993,-21 -0.687485,-3.84998 -1.653908,-9.15967 -2.14761,-11.79919 C 61.548557,686.48792 61.711357,185.54158 63.066051,175.5 67.652176,141.50565 85.054153,110.95628 111.42761,90.600769 118.82944,84.887901 121.98913,82.808823 130.5,78.051147 c 6.12735,-3.425254 21.93896,-8.997474 31,-10.924797 13.66563,-2.906746 32.18907,-3.123382 266.7793,-3.12014 242.76971,0.0034 250.77105,0.113533 265.7207,3.658768 23.1889,5.499123 40.9295,15.30307 58.35724,32.249825 14.44702,14.048277 24.82025,30.523037 31.22095,49.585197 2.37274,7.06631 3.34137,11.58304 4.93261,23 1.16162,8.33469 1.39362,52.13252 1.39301,263 -6.7e-4,261.33582 0.0209,259.73682 -3.72534,276 -6.85474,29.75769 -28.88886,59.71307 -55.67847,75.69488 -16.62451,9.91761 -31.48462,14.89576 -53,17.75513 -12.25909,1.62921 -492.98142,1.19318 -505,-0.45807 z"
         id="path1-9" />
      <path
         transform="matrix(-0.352734,0,0,0.352734,-314.10821,178.65843)"
         style="fill:#000000;fill-opacity:1;stroke:#000000;stroke-width:0.14175mm"
         d="m 558,750.54047 c 13.73291,-3.46649 19.85168,-6.77649 28.65985,-15.50391 6.42462,-6.36566 10.99854,-14.13336 14.19556,-24.10754 1.76111,-5.49451 1.53869,-60.69336 -0.28296,-70.21424 -2.4859,-12.99249 -8.74085,-22.22979 -20.23798,-29.88733 -13.54614,-9.02227 -13.01526,-8.93768 -61.83447,-9.85742 -23.64999,-0.44555 -82.91556,-0.84613 -131.7012,-0.89007 -96.91907,-0.0874 -93.46472,-0.27546 -106.23932,5.78411 -10.4747,4.96863 -19.04804,14.18573 -25.24043,27.13593 -5.44474,11.38654 -5.38564,10.94379 -5.54564,41.54791 -0.16471,31.50446 -0.10025,31.97803 5.91581,43.46295 9.62688,18.37806 20.56667,27.20673 38.31078,30.91773 6.64304,1.38928 93.15659,2.69476 190.5,2.87457 55.02637,0.10162 69.04932,-0.13928 73.5,-1.26269 z"
         id="path2-3" />
      <path
         transform="matrix(-0.352734,0,0,0.352734,-314.10821,178.65843)"
         style="fill:#000000;fill-opacity:1;stroke:#000000;stroke-width:0.14175mm"
         d="M 648.15332,572.91797 C 649.78595,572.04419 650,570.58514 650,560.33014 c 0,-29.836 -8.9433,-57.65143 -24.86847,-77.34586 -9.38885,-11.61099 -17.3869,-18.74051 -29.13153,-25.96789 -7.98938,-4.91651 -19.21399,-10.66577 -24.18366,-12.3869 -2.37396,-0.82218 -7.46441,-2.65018 -11.31201,-4.0622 C 556.65674,439.15527 553.38306,438 553.22955,438 c -1.48767,0 -2.16424,8.79089 -2.28326,29.66788 l -0.14118,24.76773 2.84742,2.24689 c 7.88055,6.21841 9.92102,8.12802 12.52472,11.72161 5.19537,7.1706 6.24963,15.57026 3.1842,25.36878 -4.05817,12.97168 -18.61731,21.59082 -32.22211,19.0758 -11.64727,-2.15313 -18.22332,-7.26739 -22.87805,-17.79248 -6.13428,-13.87079 0.34735,-30.77899 14.83319,-38.69427 l 4.59449,-2.5105 0.6527,-18.67572 c 0.85077,-24.34393 0.8097,-40.40033 -0.10699,-41.78757 -0.40405,-0.61151 -2.08466,-1.362 -3.73468,-1.66769 -1.65002,-0.30573 -4.79999,-1.07993 -7,-1.72046 -7.90259,-2.30087 -9.74896,-2.38004 -11.14008,-0.47757 -0.72277,0.98849 -2.33697,2.96625 -3.58703,4.39499 -1.25009,1.42877 -4.40073,5.29434 -7.00137,8.59018 -2.60068,3.29581 -9.35633,11.84241 -15.01252,18.9924 -10.3641,13.10126 -34.02682,44.56982 -41.04959,54.591 C 428.10406,539.21307 425.00461,543 422.04834,543 419.8706,543 418.11987,540.91162 412.5,531.61023 401.86362,514.0061 376.59906,477.52515 363.50324,460.86105 360.20145,456.65964 355.92499,451.14026 354,448.59576 c -1.92499,-2.54449 -4.72983,-6.08197 -6.23291,-7.86105 -1.50311,-1.77908 -4.4281,-5.58292 -6.5,-8.45294 -4.25879,-5.89932 -5.36295,-6.59198 -8.52893,-5.35028 -1.23099,0.48279 -4.93817,1.40426 -8.23816,2.04773 -8.18176,1.59539 -13.74106,3.18481 -15.3175,4.37936 -1.0235,0.77558 -1.15787,3.24576 -0.60221,11.06989 1.04904,14.77112 1.1265,16.29416 1.27982,25.16323 l 0.13989,8.09171 4.25,1.2721 c 7.53928,2.25659 12.28436,4.98931 17.92505,10.32311 C 344.77862,501.19647 350,511.36728 350,524 c 0,6.67523 -0.93625,10.56 -4.33807,18 -3.15949,6.90997 -4.41852,8 -9.24018,8 -8.98428,0 -12.97214,-7.39844 -8.38754,-15.56091 3.00671,-5.35321 3.04431,-16.48731 0.0751,-22.26007 -2.85476,-5.55042 -10.41879,-12.79602 -14.90344,-14.2761 -4.65335,-1.53573 -15.15222,-0.61453 -18.79571,1.64917 -13.83329,8.59464 -16.9264,21.17374 -9.41907,38.30552 2.30224,5.25378 2.3129,5.42236 0.54922,8.69732 C 283.83722,549.71747 278.8692,553 275.78595,553 271.0661,553 260,532.32812 260,523.51129 c 0,-4.85974 2.47836,-13.73675 5.67972,-20.34356 3.64422,-7.52082 12.2084,-15.92063 20.60104,-20.20566 L 293.06152,479.5 292.49588,466 c -0.3111,-7.42499 -0.81076,-16.3125 -1.11035,-19.75 -0.50183,-5.75806 -0.73154,-6.25 -2.91806,-6.25 -1.30536,0 -3.40705,0.41141 -4.67041,0.91425 -1.2634,0.50283 -6.12207,2.3898 -10.79706,4.19326 -17.12524,6.60639 -27.80058,13.60352 -41.21776,27.01606 -10.33751,10.33392 -16.94458,19.58975 -22.28314,31.21633 -6.55643,14.27893 -8.82465,22.76587 -12.49226,46.74201 -0.88842,5.8078 -1.42463,21.50958 -0.75684,22.16254 0.1375,0.13439 99.47501,0.47192 220.75,0.75 121.27502,0.27807 222.48151,0.59698 224.90332,0.70867 2.42181,0.11176 5.23431,-0.24157 6.25,-0.78515 z"
         id="path3-7" />
      <path
         transform="matrix(-0.352734,0,0,0.352734,-314.10821,178.65843)"
         style="fill:#000000;fill-opacity:1;stroke:#000000;stroke-width:0.14175mm"
         d="m 358.50046,405.9986 c 0.4476,-1.41028 -1.48596,-3.95551 -7.8064,-10.27597 -7.93677,-7.93677 -13.69299,-15.38941 -18.76923,-24.30079 -11.56057,-20.29467 -16.13735,-33.62292 -20.89129,-60.83862 -1.42185,-8.13983 -1.34055,-47.82654 0.10788,-52.66095 C 313.46173,250.17783 320.99033,244 328.10776,244 c 2.84546,0 8.73645,-1.18988 16.39224,-3.31097 11.74527,-3.25412 26.93512,-15.55877 35.42779,-28.69861 4.76542,-7.373 11.34183,-20.78891 13.59827,-27.74042 1.76212,-5.42856 3.07086,-6.52551 4.17584,-3.5 2.76068,7.5591 22.88507,29.49956 33.94968,37.0134 19.31397,13.11586 36.57837,19.96629 63.34842,25.13635 3.02499,0.58421 7.88464,1.52077 10.79922,2.08124 2.91459,0.56045 7.13736,1.01901 9.38401,1.01901 10.6275,0 17.81524,5.38791 19.69867,14.76602 1.5982,7.95825 1.34356,37.87189 -0.41913,49.23398 -1.72656,11.12888 -2.88288,16.98373 -4.44373,22.5 -0.6225,2.20001 -1.50335,5.35001 -1.95746,7 -4.66827,16.96167 -20.02359,43.1311 -33.1857,56.55691 -3.78173,3.85755 -6.87588,7.45893 -6.87588,8.00315 0,2.29367 6.43591,3.29373 24,3.72922 19.2807,0.47805 36.93384,-0.84592 47,-3.52497 3.02502,-0.80508 6.625,-1.69815 8,-1.98462 5.04169,-1.05038 18.59137,-8.01397 21.75,-11.17797 3.74249,-3.74891 3.78406,-4.04233 1.67139,-11.80292 -5.24811,-19.27832 -7.99244,-31.71915 -11.42621,-51.7988 -1.03461,-6.04999 -2.11249,-12.35001 -2.3952,-14 -0.28272,-1.64999 -1.00092,-6.14999 -1.59601,-10 -1.78583,-11.55457 -4.52997,-27.72388 -6.10962,-36 -2.57923,-13.51332 -3.22217,-16.6169 -5.07532,-24.5 -5.15271,-21.91931 -10.57367,-37.57475 -18.87146,-54.5 -7.31451,-14.9196 -8.11401,-16.26212 -15.18616,-25.50226 -7.39892,-9.66695 -8.914,-11.28781 -17.29052,-18.49774 C 502.09708,135.57103 494.83328,131.09024 482,125.70358 c -12.38931,-5.2003 -35.31598,-9.68696 -49.5,-9.68696 -5.69543,0 -24.25522,2.44528 -29.5,3.88668 -12.54044,3.44642 -20.58929,5.17586 -22.1676,4.76312 -4.01367,-1.04959 -19.99478,6.35914 -30.99256,14.36791 -13.01934,9.48093 -30.07943,28.79726 -38.3887,43.46567 -10.92657,19.2888 -18.17361,36.89157 -26.34882,64 -1.78298,5.91229 -6.03906,24.28705 -7.99111,34.5 -0.57819,3.02499 -1.48069,7.75 -2.00559,10.5 -0.97824,5.12524 -2.30527,12.71701 -4.15146,23.75 -2.70755,16.18054 -7.25784,39.60287 -8.88791,45.75 -0.51046,1.92499 -1.90674,7.10001 -3.10284,11.5 -4.24794,15.62668 -4.15662,15.94662 6.30093,22.07562 8.57959,5.02835 19.25061,8.43244 36.23566,11.55921 7.38922,1.36029 32.46371,2.47378 46.20273,2.05175 8.94006,-0.27459 10.27636,-0.54537 10.79773,-2.18798 z"
         id="path4-5" />
      <path
         transform="matrix(-0.352734,0,0,0.352734,-314.10821,178.65843)"
         style="fill:#000000;fill-opacity:1;stroke:#000000;stroke-width:0.14175mm"
         d="m 385.5,326.46161 c 9.35467,-0.79935 13.28873,-2.19708 17.65695,-6.27329 4.5799,-4.27374 8.81824,-15.97326 8.85837,-24.45266 0.008,-1.77961 0.40921,-3.85758 0.89062,-4.61771 1.13001,-1.78421 10.39093,-3.24521 15.57074,-2.45642 6.64966,1.0126 7.1941,1.60648 7.37107,8.04025 0.17724,6.4448 1.71945,14.16052 3.78598,18.94126 1.58481,3.66638 7.42135,9.08685 10.63461,9.87649 4.91702,1.20831 32.15839,2.01953 41.2804,1.22928 20.48874,-1.77499 24.50668,-7.6355 24.52621,-35.77411 0.008,-12.11951 -0.34869,-16.39725 -1.62793,-19.5 -2.01452,-4.8862 -4.96701,-8.17752 -8.93201,-9.95706 -6.55737,-2.94296 -39.61029,-4.57761 -50.62853,-2.50382 -7.89682,1.4863 -11.66892,3.61905 -15.15964,8.57138 l -3.11185,4.4148 -8.05749,0.0638 c -4.43162,0.0351 -9.63028,0.21646 -11.55259,0.40302 -3.08123,0.29901 -4.02853,-0.23419 -8,-4.50281 -7.42529,-7.98084 -9.59076,-8.46811 -37.50491,-8.43915 -22.27826,0.0231 -24.32742,0.17624 -28.56418,2.1348 -5.36258,2.479 -9.4035,6.92856 -11.00818,12.12137 -1.81448,5.8717 -2.32651,22.77078 -0.92923,30.66925 2.86783,16.21124 8.42411,20.5925 28.50159,22.4743 8.77524,0.82245 11.5304,0.77341 26,-0.46301 z"
         id="path5-7" />
      <path
         transform="matrix(-0.352734,0,0,0.352734,-314.10821,178.65843)"
         style="fill:#ffffff;fill-opacity:1;stroke:none;stroke-width:0.14175mm"
         d="m 311.2214,726.92578 c -16.69284,-1.28229 -25.24704,-4.98291 -30.77972,-13.31573 -5.70569,-8.59339 -6.41638,-13.00171 -6.42981,-39.88202 L 274,649.95612 l 2.9404,-6.48493 c 1.83981,-4.05768 4.82764,-8.32318 7.98248,-11.39612 9.4874,-9.24096 -5.16928,-8.39172 140.45603,-8.13867 87.99462,0.15289 129.71038,0.5603 131.5,1.2843 8.8872,3.59534 12.7431,6.42011 16.76159,12.2793 1.73163,2.52484 2.24195,5.69257 3.22205,20 0.6405,9.34998 1.15845,23.84918 1.151,32.22034 -0.0125,13.98395 -0.21082,15.64929 -2.4422,20.5 -2.94287,6.39752 -8.31543,11.76855 -15.21655,15.21222 L 555.20953,728 438.35477,727.85767 c -64.27011,-0.0783 -121.48014,-0.49762 -127.13337,-0.93189 z"
         id="path6-2" />
      <path
         transform="matrix(-0.352734,0,0,0.352734,-314.10821,178.65843)"
         style="fill:#000000;fill-opacity:1;stroke:#000000;stroke-width:0.14175mm"
         d="M 541.09882,692.89423 C 543.97931,689.81067 544,689.69946 544,677.31732 c 0,-12.33032 -0.0317,-12.50287 -2.8045,-15.27563 l -2.80451,-2.80451 -112.8576,0.21918 -112.85761,0.21924 -2.33789,2.71795 C 308.23053,664.84351 308,666.08008 308,674.93366 c 0,10.48687 1.40118,15.68499 4.77985,17.73242 1.41503,0.85748 30.21646,1.34338 108.82223,1.83575 58.79385,0.36835 107.08542,0.85608 107.31461,1.08392 0.22912,0.22785 2.41107,0.41425 4.84875,0.41425 3.6687,0 4.93189,-0.53497 7.33338,-3.10577 z"
         id="path7-9" />
      <path
         transform="matrix(-0.352734,0,0,0.352734,-314.10821,178.65843)"
         style="fill:#ffffff;fill-opacity:1;stroke:#000000;stroke-width:0.14175mm"
         d="m 353.77634,311.19119 c -2.61164,-0.21655 -4.34974,-1.1047 -5.8201,-2.97397 -1.94654,-2.47458 -2.07355,-3.69256 -1.77634,-17.03186 0.42935,-19.2698 -0.97812,-18.18979 23.68088,-18.17172 10.25159,0.008 19.66974,0.28974 20.92926,0.62711 4.00302,1.07232 5.20996,5.16977 5.20996,17.68747 0,13.1773 -1.34763,17.78033 -5.70493,19.48584 -2.51937,0.98611 -26.22332,1.23092 -36.51873,0.37713 z"
         id="path8-7" />
      <path
         transform="matrix(-0.352734,0,0,0.352734,-314.10821,178.65843)"
         style="fill:#ffffff;fill-opacity:1;stroke:#000000;stroke-width:0.14175mm"
         d="m 456.45117,310.84186 c -3.3118,-1.56464 -4.38592,-4.27066 -5.58893,-14.07977 -0.98251,-8.01145 -0.9086,-10.0272 0.54755,-14.92832 0.92587,-3.11642 2.40546,-6.26645 3.28796,-7 1.18241,-0.98288 6.68671,-1.41955 20.92276,-1.65985 l 19.31824,-0.32608 2.53064,2.53064 C 499.94348,277.85257 500,278.23199 500,292.36566 v 14.45654 l -3.07727,2.58936 c -3.0676,2.58124 -3.1326,2.58905 -20.75,2.49381 -9.72,-0.0526 -18.5947,-0.53113 -19.72156,-1.06351 z"
         id="path9-5" />
    </g>
  </g>
</svg>
